<?xml version="1.0" encoding="utf-8"?>
<!-- Generator: Adobe Illustrator 24.1.3, SVG Export Plug-In . SVG Version: 6.00 Build 0)  -->
<svg version="1.1" id="Layer_1" xmlns="http://www.w3.org/2000/svg" xmlns:xlink="http://www.w3.org/1999/xlink" x="0px" y="0px"
	 viewBox="0 0 181 141.4" style="enable-background:new 0 0 181 141.4;" xml:space="preserve">
<style type="text/css">
	.st0{enable-background:new    ;}
	.st1{fill:#FFFFFF;}
	.st2{fill-rule:evenodd;clip-rule:evenodd;fill:#7CE832;}
	.st3{fill-rule:evenodd;clip-rule:evenodd;fill:#FAC400;}
	.st4{fill:none;stroke:#DEDEDE;}
</style>
<g id="white-logo" transform="translate(7136 443.427)">
	<g id="Group_266" transform="translate(-7178.014 -447.779)">
		<g class="st0">
			<path class="st1" d="M55,112h-6.4l-1.1,3.1h-4.3l6.2-16.8h4.7l6.2,16.8h-4.4L55,112z M53.9,108.9l-2.1-6.2l-2.1,6.2H53.9z"/>
			<path class="st1" d="M77.1,115.1H73l-6.9-10.4v10.4H62v-17h4.1l6.9,10.5V98.2h4.1V115.1z"/>
			<path class="st1" d="M92.1,98.2v3.3h-4.6v13.7h-4.1v-13.7h-4.6v-3.3H92.1z"/>
			<path class="st1" d="M108.5,98.2v17h-4.1v-7.1h-6.4v7.1h-4.1v-17h4.1v6.6h6.4v-6.6H108.5z"/>
			<path class="st1" d="M123.7,99c1.3,0.7,2.3,1.8,3.1,3.1c0.8,1.3,1.1,2.8,1.1,4.5s-0.4,3.2-1.1,4.5c-0.8,1.3-1.8,2.4-3.1,3.1
				s-2.7,1.1-4.3,1.1s-3-0.4-4.3-1.1s-2.3-1.8-3.1-3.1s-1.1-2.8-1.1-4.5s0.4-3.2,1.1-4.5c0.8-1.3,1.8-2.4,3.1-3.1s2.7-1.1,4.3-1.1
				C121,97.9,122.4,98.3,123.7,99z M116.2,103c-0.8,0.9-1.2,2.1-1.2,3.6c0,1.5,0.4,2.7,1.2,3.6c0.8,0.9,1.9,1.3,3.2,1.3
				c1.3,0,2.4-0.4,3.2-1.3c0.8-0.9,1.2-2.1,1.2-3.6s-0.4-2.7-1.2-3.6c-0.8-0.9-1.9-1.3-3.2-1.3C118,101.7,117,102.2,116.2,103z"/>
			<path class="st1" d="M143.4,99.7c1.4,1.1,2.3,2.7,2.7,4.6h-4.3c-0.3-0.8-0.8-1.4-1.5-1.8c-0.7-0.4-1.5-0.7-2.4-0.7
				c-1.2,0-2.2,0.4-2.9,1.3c-0.7,0.9-1.1,2.1-1.1,3.5s0.4,2.6,1.1,3.5c0.7,0.9,1.7,1.3,2.9,1.3c0.9,0,1.7-0.2,2.4-0.7
				c0.7-0.4,1.2-1.1,1.5-1.8h4.3c-0.4,1.9-1.3,3.5-2.7,4.6s-3.2,1.7-5.4,1.7c-1.6,0-3.1-0.4-4.3-1.1c-1.2-0.7-2.2-1.7-2.9-3.1
				c-0.7-1.3-1-2.8-1-4.5s0.3-3.2,1-4.5s1.6-2.3,2.9-3.1c1.2-0.7,2.7-1.1,4.3-1.1C140.2,98,142,98.6,143.4,99.7z"/>
			<path class="st1" d="M163.1,98.2l-5.9,11.3v5.6h-4.1v-5.6l-5.9-11.3h4.7l3.3,6.9l3.3-6.9H163.1z"/>
			<path class="st1" d="M175.2,112h-6.4l-1.1,3.1h-4.3l6.2-16.8h4.7l6.2,16.8h-4.4L175.2,112z M174.1,108.9l-2.1-6.2l-2.1,6.2H174.1
				z"/>
			<path class="st1" d="M197.3,115.1h-4.1l-6.9-10.4v10.4h-4.1v-17h4.1l6.9,10.5V98.2h4.1V115.1z"/>
			<path class="st1" d="M204.2,98.2v17h-4.1v-17H204.2z"/>
			<path class="st1" d="M222.1,115.1H218l-6.9-10.4v10.4H207v-17h4.1l6.9,10.5V98.2h4.1V115.1z"/>
		</g>
		<path id="Path_899" class="st2" d="M146.4,78.2c-0.5-0.5-0.9-1-1.1-1.7c-0.5-1.1-0.8-2.2-1.1-3.3c-0.2-1.2-0.3-2.4-0.1-3.6
			c0.2-1.1,0.4-2.1,0.9-3.2c0.3-0.8,0.8-1.6,1.4-2.3c0.6-0.8,1.4-1.6,2.2-2.4s1.5-1.6,2.2-2.2s1.3-1.2,2-1.8s1.3-1.4,2-2.1
			s1.3-1.5,1.8-2.2c0.5-0.6,0.8-1.3,1.1-2c0.2-0.6,0.4-1.3,0.5-1.9c0.1-0.5,0.1-0.6,0.2-0.5c0.4,0.5,0.7,1,1,1.5
			c0.6,0.9,1.1,1.9,1.6,2.9c0.5,1,0.9,2.1,1.2,3.2c0.4,1.2,0.6,2.4,0.8,3.7c0.2,1.4,0.3,2.8,0.2,4.1c0,1.5-0.2,3-0.6,4.5
			c-0.4,1.6-0.9,3.1-1.6,4.6c-0.7,1.4-1.6,2.8-2.5,4.1c-0.9,1.2-1.8,2.3-2.8,3.3c-1,1-2.1,2-3.3,2.8c-1.4,1-2.8,1.8-4.3,2.5
			c-1.3,0.7-2.7,1.2-4.2,1.5c-1.5,0.3-3,0.6-4.5,0.7c-1.6,0.2-3.2,0.2-4.8,0c-1.8-0.2-3.5-0.6-5.2-1.1c-1.8-0.6-3.6-1.3-5.4-2.2
			c-1.5-0.8-3-1.7-4.3-2.7c-1-0.7-1.9-1.6-2.7-2.5c-0.9-1-1.7-2-2.4-3.1c-0.8-1.2-1.4-2.4-1.9-3.7c-0.6-1.5-1.1-3-1.4-4.6
			c-0.4-1.5-0.6-3.1-0.7-4.6c-0.1-1.3-0.1-2.6,0.1-3.9c0.2-1.2,0.5-2.4,0.8-3.6c0.3-1,0.6-2,1-3c0.6-1.3,1.2-2.6,2-3.8
			c0.6-1,1.3-1.9,2-2.8c0.5-0.7,0.9-1.2,0.5-0.6s-1.4,2.3-2.2,3.8c-0.7,1.4-1.3,2.8-1.7,4.3c-0.4,1.4-0.6,2.9-0.8,4.4
			c-0.1,1.4-0.1,2.8,0,4.2c0.2,1.5,0.4,3,0.8,4.5c0.3,1.3,0.8,2.5,1.3,3.7c0.5,1.1,1.1,2.1,1.8,3.1c0.6,0.9,1.3,1.7,2,2.5
			c0.8,0.9,1.7,1.8,2.7,2.6c0.9,0.8,1.9,1.5,3,2.2c1.3,0.7,2.6,1.3,4,1.8c1.5,0.5,3.1,1,4.7,1.3c1.4,0.2,2.8,0.4,4.2,0.4
			c1.2,0,2.3-0.1,3.5-0.4c1.4-0.3,2.7-0.6,4-1c1.3-0.4,2.6-1,3.8-1.7c1.2-0.7,2.3-1.4,3.3-2.2c0.9-0.7,1.8-1.5,2.6-2.4
			c0.7-0.9,1.4-1.8,2.1-2.7c0.6-0.9,1.2-1.9,1.6-3c0.4-1.2,0.8-2.4,1-3.6c0.1-0.8,0.2-1.6,0.3-2.4c0-0.5,0.1-0.5-0.3,0.2
			s-1,2.2-1.8,3.6c-0.7,1.3-1.5,2.6-2.4,3.7c-0.8,1.1-1.7,2-2.7,2.9c-0.7,0.6-1.5,1.2-2.3,1.7c-0.5,0.3-1,0.5-1.6,0.7
			C147.3,78.4,146.8,78.4,146.4,78.2"/>
		<path id="Path_900" class="st3" d="M137.4,8.4c-0.1,0.5-0.1,1.9-0.2,3.3c-0.1,1.5-0.3,3-0.5,4.5c-0.3,1.6-0.6,3.3-1.1,5
			c-0.4,1.7-1,3.3-1.6,5c-0.6,1.5-1.3,3-2.2,4.4c-0.8,1.4-1.7,2.8-2.5,4c-0.8,1.2-1.6,2.4-2.5,3.5c-0.9,1.2-2,2.4-3.1,3.7
			s-2.1,2.5-3,3.7c-1,1.2-1.9,2.4-2.7,3.7c-0.8,1.3-1.4,2.8-1.8,4.3c-0.4,1.5-0.6,3.1-0.8,4.6c-0.1,1.2-0.1,2.4,0,3.6
			c0.1,1.3,0.4,2.7,0.7,4c0.3,1.2,0.7,2.3,1.2,3.5c0.3,0.9,0.7,1.7,1.2,2.5c0.4,0.6,0.8,1.1,1.2,1.5c0.5,0.5,1,1.2,1.8,2
			s1.9,1.8,2.9,2.6c0.9,0.8,1.9,1.5,2.9,2.1c1.4,0.7,2.8,1.3,4.2,1.7c1.3,0.4,2.7,0.6,4,0.8c1,0.1,2,0.1,3,0c1.1,0,2.1-0.1,3.2-0.3
			c0.8-0.1,1.6-0.3,2.4-0.7c0.4-0.2,0.3-0.4,0-1c-0.5-0.9-0.9-1.7-1.3-2.6c-0.6-1.4-1.1-2.9-1.4-4.5c-0.3-1.4-0.4-2.8-0.3-4.2
			c0.1-1.2,0.3-2.3,0.7-3.4c0.3-0.9,0.7-1.8,1.2-2.6c0.5-0.8,1.1-1.6,1.7-2.3c0.6-0.6,1.2-1.2,1.8-1.8c0.7-0.6,1.4-1.2,2.2-1.9
			s1.7-1.6,2.4-2.4s1.4-1.4,2-2c0.6-0.6,1.1-1.2,1.5-1.9c0.4-0.7,0.7-1.5,0.9-2.3c0.2-1,0.3-2,0.3-3c0-1-0.2-1.9-0.4-2.9
			c-0.3-1.3-0.8-2.6-1.3-3.8c-0.5-1.1-1-2.1-1.6-3.1c-0.5-1-1.1-2-1.6-2.8s-0.8-1.4-1.4-2.2s-1.2-1.9-1.7-2.6s-0.8-1.1-1.5-2.2
			s-1.7-2.8-2.5-4.1s-1.3-2.2-2-3.6c-0.7-1.4-1.6-3.3-2.3-4.7s-1.1-2.4-1.4-3c-0.3-0.6-0.5-1-0.6-1.4C137.7,8.5,137.5,8,137.4,8.4"
			/>
	</g>
	<g class="st0">
		<path class="st1" d="M-7128.3-304.3c-0.2,0.4-0.5,0.7-1,0.9c-0.4,0.2-1,0.4-1.6,0.4c-0.6,0-1.2-0.1-1.7-0.3
			c-0.5-0.2-0.9-0.5-1.2-0.9s-0.5-0.9-0.5-1.4h1.6c0,0.4,0.2,0.7,0.5,1c0.3,0.3,0.7,0.4,1.2,0.4c0.5,0,0.8-0.1,1-0.4
			c0.2-0.2,0.4-0.6,0.4-0.9c0-0.3-0.1-0.6-0.3-0.8c-0.2-0.2-0.4-0.4-0.7-0.5s-0.6-0.3-1.1-0.4c-0.6-0.2-1-0.4-1.4-0.5
			c-0.4-0.2-0.7-0.4-0.9-0.8c-0.3-0.3-0.4-0.8-0.4-1.4c0-0.5,0.1-0.9,0.4-1.3c0.2-0.4,0.6-0.7,1-0.9c0.5-0.2,1-0.3,1.6-0.3
			c0.9,0,1.7,0.2,2.2,0.7c0.6,0.5,0.9,1,0.9,1.8h-1.6c-0.1-0.3-0.2-0.6-0.5-0.9c-0.3-0.2-0.6-0.4-1.1-0.4c-0.4,0-0.7,0.1-1,0.3
			c-0.3,0.2-0.4,0.5-0.4,0.9c0,0.3,0.1,0.6,0.3,0.8c0.2,0.2,0.4,0.4,0.7,0.5c0.3,0.1,0.6,0.3,1.1,0.4c0.6,0.2,1.1,0.4,1.4,0.6
			s0.7,0.5,0.9,0.8s0.4,0.8,0.4,1.4C-7128-305.1-7128.1-304.7-7128.3-304.3z"/>
		<path class="st1" d="M-7120.7-311.1v2.8h3.4v1.1h-3.4v2.8h3.8v1.2h-5.3v-9.2h5.3v1.2H-7120.7z"/>
		<path class="st1" d="M-7103.8-303.1h-1.5l-4.5-6.8v6.8h-1.5v-9.2h1.5l4.5,6.8v-6.8h1.5V-303.1z"/>
		<path class="st1" d="M-7092-304.3c-0.2,0.4-0.5,0.7-1,0.9c-0.4,0.2-1,0.4-1.6,0.4c-0.6,0-1.2-0.1-1.7-0.3
			c-0.5-0.2-0.9-0.5-1.2-0.9s-0.5-0.9-0.5-1.4h1.6c0,0.4,0.2,0.7,0.5,1c0.3,0.3,0.7,0.4,1.2,0.4c0.5,0,0.8-0.1,1-0.4
			c0.2-0.2,0.4-0.6,0.4-0.9c0-0.3-0.1-0.6-0.3-0.8c-0.2-0.2-0.4-0.4-0.7-0.5s-0.6-0.3-1.1-0.4c-0.6-0.2-1-0.4-1.4-0.5
			c-0.4-0.2-0.7-0.4-0.9-0.8c-0.3-0.3-0.4-0.8-0.4-1.4c0-0.5,0.1-0.9,0.4-1.3c0.2-0.4,0.6-0.7,1-0.9c0.5-0.2,1-0.3,1.6-0.3
			c0.9,0,1.7,0.2,2.2,0.7c0.6,0.5,0.9,1,0.9,1.8h-1.6c-0.1-0.3-0.2-0.6-0.5-0.9c-0.3-0.2-0.6-0.4-1.1-0.4c-0.4,0-0.7,0.1-1,0.3
			c-0.3,0.2-0.4,0.5-0.4,0.9c0,0.3,0.1,0.6,0.3,0.8c0.2,0.2,0.4,0.4,0.7,0.5c0.3,0.1,0.6,0.3,1.1,0.4c0.6,0.2,1.1,0.4,1.4,0.6
			s0.7,0.5,0.9,0.8s0.4,0.8,0.4,1.4C-7091.7-305.1-7091.8-304.7-7092-304.3z"/>
		<path class="st1" d="M-7084.4-311.1v2.8h3.4v1.1h-3.4v2.8h3.8v1.2h-5.3v-9.2h5.3v1.2H-7084.4z"/>
		<path class="st1" d="M-7061-311.8c0.7,0.4,1.2,1,1.6,1.7c0.4,0.7,0.6,1.5,0.6,2.4s-0.2,1.7-0.6,2.4c-0.4,0.7-0.9,1.3-1.6,1.7
			c-0.7,0.4-1.5,0.6-2.3,0.6c-0.9,0-1.6-0.2-2.3-0.6c-0.7-0.4-1.2-1-1.6-1.7c-0.4-0.7-0.6-1.5-0.6-2.4s0.2-1.7,0.6-2.4
			c0.4-0.7,0.9-1.3,1.6-1.7c0.7-0.4,1.5-0.6,2.3-0.6C-7062.4-312.4-7061.7-312.2-7061-311.8z M-7064.9-310.6
			c-0.5,0.3-0.8,0.7-1.1,1.2c-0.3,0.5-0.4,1.1-0.4,1.8c0,0.7,0.1,1.3,0.4,1.8c0.3,0.5,0.6,0.9,1.1,1.2c0.5,0.3,1,0.4,1.6,0.4
			c0.6,0,1.1-0.1,1.6-0.4c0.5-0.3,0.8-0.7,1.1-1.2c0.3-0.5,0.4-1.1,0.4-1.8c0-0.7-0.1-1.3-0.4-1.8c-0.3-0.5-0.6-0.9-1.1-1.2
			s-1-0.4-1.6-0.4C-7063.9-311-7064.4-310.9-7064.9-310.6z"/>
		<path class="st1" d="M-7047.6-312.3v1.2h-3.9v2.8h3.3v1.1h-3.3v4h-1.5v-9.2H-7047.6z"/>
		<path class="st1" d="M-7033.1-311.1v2.8h3.4v1.1h-3.4v2.8h3.8v1.2h-5.3v-9.2h5.3v1.2H-7033.1z"/>
		<path class="st1" d="M-7017.9-304.3c-0.2,0.4-0.5,0.7-1,0.9c-0.4,0.2-1,0.4-1.6,0.4c-0.6,0-1.2-0.1-1.7-0.3
			c-0.5-0.2-0.9-0.5-1.2-0.9s-0.5-0.9-0.5-1.4h1.6c0,0.4,0.2,0.7,0.5,1c0.3,0.3,0.7,0.4,1.2,0.4c0.5,0,0.8-0.1,1-0.4
			c0.2-0.2,0.4-0.6,0.4-0.9c0-0.3-0.1-0.6-0.3-0.8c-0.2-0.2-0.4-0.4-0.7-0.5s-0.6-0.3-1.1-0.4c-0.6-0.2-1-0.4-1.4-0.5
			c-0.4-0.2-0.7-0.4-0.9-0.8c-0.3-0.3-0.4-0.8-0.4-1.4c0-0.5,0.1-0.9,0.4-1.3c0.2-0.4,0.6-0.7,1-0.9c0.5-0.2,1-0.3,1.6-0.3
			c0.9,0,1.7,0.2,2.2,0.7c0.6,0.5,0.9,1,0.9,1.8h-1.6c-0.1-0.3-0.2-0.6-0.5-0.9c-0.3-0.2-0.6-0.4-1.1-0.4c-0.4,0-0.7,0.1-1,0.3
			c-0.3,0.2-0.4,0.5-0.4,0.9c0,0.3,0.1,0.6,0.3,0.8c0.2,0.2,0.4,0.4,0.7,0.5c0.3,0.1,0.6,0.3,1.1,0.4c0.6,0.2,1.1,0.4,1.4,0.6
			s0.7,0.5,0.9,0.8s0.4,0.8,0.4,1.4C-7017.6-305.1-7017.7-304.7-7017.9-304.3z"/>
		<path class="st1" d="M-7006.1-304.3c-0.2,0.4-0.5,0.7-1,0.9c-0.4,0.2-1,0.4-1.6,0.4c-0.6,0-1.2-0.1-1.7-0.3
			c-0.5-0.2-0.9-0.5-1.2-0.9s-0.5-0.9-0.5-1.4h1.6c0,0.4,0.2,0.7,0.5,1c0.3,0.3,0.7,0.4,1.2,0.4c0.5,0,0.8-0.1,1-0.4
			c0.2-0.2,0.4-0.6,0.4-0.9c0-0.3-0.1-0.6-0.3-0.8c-0.2-0.2-0.4-0.4-0.7-0.5s-0.6-0.3-1.1-0.4c-0.6-0.2-1-0.4-1.4-0.5
			c-0.4-0.2-0.7-0.4-0.9-0.8c-0.3-0.3-0.4-0.8-0.4-1.4c0-0.5,0.1-0.9,0.4-1.3c0.2-0.4,0.6-0.7,1-0.9c0.5-0.2,1-0.3,1.6-0.3
			c0.9,0,1.7,0.2,2.2,0.7c0.6,0.5,0.9,1,0.9,1.8h-1.6c-0.1-0.3-0.2-0.6-0.5-0.9c-0.3-0.2-0.6-0.4-1.1-0.4c-0.4,0-0.7,0.1-1,0.3
			c-0.3,0.2-0.4,0.5-0.4,0.9c0,0.3,0.1,0.6,0.3,0.8c0.2,0.2,0.4,0.4,0.7,0.5c0.3,0.1,0.6,0.3,1.1,0.4c0.6,0.2,1.1,0.4,1.4,0.6
			s0.7,0.5,0.9,0.8s0.4,0.8,0.4,1.4C-7005.7-305.1-7005.8-304.7-7006.1-304.3z"/>
		<path class="st1" d="M-6998.5-311.1v2.8h3.4v1.1h-3.4v2.8h3.8v1.2h-5.3v-9.2h5.3v1.2H-6998.5z"/>
		<path class="st1" d="M-6981.5-303.1h-1.5l-4.5-6.8v6.8h-1.5v-9.2h1.5l4.5,6.8v-6.8h1.5V-303.1z"/>
		<path class="st1" d="M-6968.5-311.5c0.7,0.6,1.2,1.3,1.5,2.3h-1.6c-0.2-0.6-0.6-1-1-1.3c-0.5-0.3-1.1-0.5-1.7-0.5
			c-0.5,0-1,0.1-1.5,0.4c-0.4,0.3-0.8,0.7-1,1.2c-0.2,0.5-0.4,1.1-0.4,1.7c0,0.7,0.1,1.2,0.4,1.7c0.2,0.5,0.6,0.9,1,1.2
			c0.4,0.3,0.9,0.4,1.5,0.4c0.7,0,1.3-0.2,1.7-0.5c0.5-0.3,0.8-0.8,1-1.3h1.6c-0.3,1-0.8,1.8-1.5,2.3c-0.7,0.6-1.7,0.9-2.8,0.9
			c-0.9,0-1.6-0.2-2.3-0.6s-1.2-0.9-1.5-1.7c-0.4-0.7-0.5-1.5-0.5-2.4s0.2-1.7,0.5-2.4c0.4-0.7,0.9-1.3,1.5-1.7s1.4-0.6,2.3-0.6
			C-6970.2-312.4-6969.3-312.1-6968.5-311.5z"/>
		<path class="st1" d="M-6959.8-311.1v2.8h3.4v1.1h-3.4v2.8h3.8v1.2h-5.3v-9.2h5.3v1.2H-6959.8z"/>
	</g>
	<line id="Line_32" class="st4" x1="-7134.3" y1="-322.6" x2="-6956.7" y2="-322.6"/>
</g>
</svg>
