<?xml version="1.0" encoding="utf-8"?>
<!-- Generator: Adobe Illustrator 24.1.3, SVG Export Plug-In . SVG Version: 6.00 Build 0)  -->
<svg version="1.1" id="Layer_1" xmlns="http://www.w3.org/2000/svg" xmlns:xlink="http://www.w3.org/1999/xlink" x="0px" y="0px"
	 viewBox="0 0 204.3 65.4" style="enable-background:new 0 0 204.3 65.4;" xml:space="preserve">
<style type="text/css">
	.st0{enable-background:new    ;}
	.st1{fill:#3A3A3A;}
	.st2{fill-rule:evenodd;clip-rule:evenodd;fill:#317800;}
	.st3{fill-rule:evenodd;clip-rule:evenodd;fill:#FAC400;}
	.st4{fill:none;stroke:#DEDEDE;}
</style>
<g>
	<g class="st0">
		<path class="st1" d="M63.3,31.2H58l-0.9,2.6h-3.6l5.2-14h3.9l5.2,14h-3.6L63.3,31.2z M62.4,28.6l-1.8-5.2l-1.8,5.2H62.4z"/>
		<path class="st1" d="M81.7,33.8h-3.4l-5.7-8.7v8.7h-3.4V19.6h3.4l5.7,8.8v-8.8h3.4V33.8z"/>
		<path class="st1" d="M94.2,19.6v2.7h-3.8v11.4h-3.4V22.3h-3.8v-2.7H94.2z"/>
		<path class="st1" d="M107.8,19.6v14.1h-3.4v-5.9H99v5.9h-3.4V19.6H99v5.5h5.4v-5.5H107.8z"/>
		<path class="st1" d="M120.6,20.3c1.1,0.6,1.9,1.5,2.6,2.6c0.6,1.1,0.9,2.3,0.9,3.7s-0.3,2.6-1,3.7c-0.6,1.1-1.5,2-2.6,2.6
			s-2.3,0.9-3.6,0.9c-1.3,0-2.5-0.3-3.6-0.9c-1.1-0.6-1.9-1.5-2.6-2.6c-0.6-1.1-1-2.4-1-3.7s0.3-2.6,1-3.7c0.6-1.1,1.5-2,2.6-2.6
			c1.1-0.6,2.3-0.9,3.6-0.9C118.3,19.4,119.5,19.7,120.6,20.3z M114.3,23.7c-0.7,0.7-1,1.7-1,3c0,1.2,0.3,2.2,1,3s1.5,1.1,2.7,1.1
			c1.1,0,2-0.4,2.7-1.1s1-1.7,1-3s-0.3-2.2-1-3c-0.7-0.7-1.5-1.1-2.7-1.1S114.9,22.9,114.3,23.7z"/>
		<path class="st1" d="M136.9,20.9c1.2,0.9,1.9,2.2,2.3,3.8h-3.6c-0.3-0.7-0.7-1.2-1.2-1.5c-0.6-0.4-1.2-0.6-2-0.6
			c-1,0-1.8,0.4-2.4,1.1s-0.9,1.7-0.9,2.9s0.3,2.2,0.9,2.9c0.6,0.7,1.4,1.1,2.4,1.1c0.8,0,1.4-0.2,2-0.6c0.6-0.4,1-0.9,1.2-1.5h3.6
			c-0.3,1.6-1.1,2.9-2.3,3.8s-2.7,1.4-4.5,1.4c-1.4,0-2.6-0.3-3.6-0.9s-1.8-1.5-2.4-2.5c-0.6-1.1-0.9-2.3-0.9-3.7s0.3-2.6,0.9-3.7
			c0.6-1.1,1.4-1.9,2.4-2.5c1-0.6,2.2-0.9,3.6-0.9C134.2,19.5,135.7,20,136.9,20.9z"/>
		<path class="st1" d="M153.3,19.6l-4.9,9.4v4.7H145v-4.7l-4.9-9.4h3.9l2.7,5.8l2.7-5.8H153.3z"/>
		<path class="st1" d="M163.4,31.2h-5.3l-0.9,2.6h-3.6l5.2-14h3.9l5.2,14h-3.6L163.4,31.2z M162.5,28.6l-1.8-5.2l-1.8,5.2H162.5z"/>
		<path class="st1" d="M181.8,33.8h-3.4l-5.7-8.7v8.7h-3.4V19.6h3.4l5.7,8.8v-8.8h3.4V33.8z"/>
		<path class="st1" d="M187.6,19.6v14.1h-3.4V19.6H187.6z"/>
		<path class="st1" d="M202.5,33.8h-3.4l-5.7-8.7v8.7H190V19.6h3.4l5.7,8.8v-8.8h3.4V33.8z"/>
	</g>
	<g class="st0">
		<path class="st1" d="M58.9,58.9c-0.2,0.3-0.5,0.6-0.8,0.8c-0.4,0.2-0.8,0.3-1.4,0.3c-0.5,0-1-0.1-1.4-0.3c-0.4-0.2-0.8-0.4-1-0.8
			c-0.2-0.3-0.4-0.7-0.4-1.2h1.3c0,0.3,0.2,0.6,0.4,0.9c0.3,0.2,0.6,0.4,1,0.4c0.4,0,0.7-0.1,0.9-0.3c0.2-0.2,0.3-0.5,0.3-0.8
			c0-0.3-0.1-0.5-0.2-0.7c-0.2-0.2-0.3-0.3-0.6-0.4c-0.2-0.1-0.5-0.2-0.9-0.4c-0.5-0.2-0.9-0.3-1.2-0.5c-0.3-0.2-0.6-0.4-0.8-0.7
			c-0.2-0.3-0.3-0.7-0.3-1.2c0-0.4,0.1-0.8,0.3-1.1c0.2-0.3,0.5-0.6,0.9-0.7s0.8-0.3,1.3-0.3c0.8,0,1.4,0.2,1.9,0.6
			c0.5,0.4,0.7,0.9,0.8,1.5h-1.4c-0.1-0.3-0.2-0.5-0.4-0.8C57,53.1,56.7,53,56.3,53c-0.4,0-0.6,0.1-0.8,0.3
			c-0.2,0.2-0.3,0.4-0.3,0.8c0,0.3,0.1,0.5,0.2,0.7c0.1,0.2,0.3,0.3,0.6,0.4c0.2,0.1,0.5,0.2,0.9,0.3c0.5,0.2,0.9,0.3,1.2,0.5
			c0.3,0.2,0.6,0.4,0.8,0.7s0.3,0.7,0.3,1.2C59.2,58.2,59.1,58.6,58.9,58.9z"/>
		<path class="st1" d="M65.2,53.1v2.4h2.9v1h-2.9v2.4h3.2v1H64v-7.8h4.4v1H65.2z"/>
		<path class="st1" d="M79.4,59.9h-1.3l-3.8-5.7v5.7h-1.3v-7.8h1.3l3.8,5.8v-5.8h1.3V59.9z"/>
		<path class="st1" d="M89.3,58.9c-0.2,0.3-0.5,0.6-0.8,0.8c-0.4,0.2-0.8,0.3-1.4,0.3c-0.5,0-1-0.1-1.4-0.3c-0.4-0.2-0.8-0.4-1-0.8
			c-0.2-0.3-0.4-0.7-0.4-1.2h1.3c0,0.3,0.2,0.6,0.4,0.9c0.3,0.2,0.6,0.4,1,0.4c0.4,0,0.7-0.1,0.9-0.3c0.2-0.2,0.3-0.5,0.3-0.8
			c0-0.3-0.1-0.5-0.2-0.7c-0.2-0.2-0.3-0.3-0.6-0.4c-0.2-0.1-0.5-0.2-0.9-0.4c-0.5-0.2-0.9-0.3-1.2-0.5c-0.3-0.2-0.6-0.4-0.8-0.7
			c-0.2-0.3-0.3-0.7-0.3-1.2c0-0.4,0.1-0.8,0.3-1.1c0.2-0.3,0.5-0.6,0.9-0.7s0.8-0.3,1.3-0.3c0.8,0,1.4,0.2,1.9,0.6
			c0.5,0.4,0.7,0.9,0.8,1.5H88c-0.1-0.3-0.2-0.5-0.4-0.8c-0.2-0.2-0.5-0.3-0.9-0.3c-0.4,0-0.6,0.1-0.8,0.3c-0.2,0.2-0.3,0.4-0.3,0.8
			c0,0.3,0.1,0.5,0.2,0.7c0.1,0.2,0.3,0.3,0.6,0.4c0.2,0.1,0.5,0.2,0.9,0.3c0.5,0.2,0.9,0.3,1.2,0.5c0.3,0.2,0.6,0.4,0.8,0.7
			s0.3,0.7,0.3,1.2C89.5,58.2,89.4,58.6,89.3,58.9z"/>
		<path class="st1" d="M95.6,53.1v2.4h2.9v1h-2.9v2.4h3.2v1h-4.4v-7.8h4.4v1H95.6z"/>
		<path class="st1" d="M115.1,52.5c0.6,0.3,1,0.8,1.4,1.4c0.3,0.6,0.5,1.3,0.5,2.1s-0.2,1.4-0.5,2.1c-0.3,0.6-0.8,1.1-1.4,1.4
			c-0.6,0.3-1.2,0.5-2,0.5c-0.7,0-1.4-0.2-2-0.5c-0.6-0.3-1-0.8-1.4-1.4c-0.3-0.6-0.5-1.3-0.5-2.1s0.2-1.4,0.5-2.1
			c0.3-0.6,0.8-1.1,1.4-1.4c0.6-0.3,1.2-0.5,2-0.5C113.9,52,114.5,52.2,115.1,52.5z M111.8,53.5c-0.4,0.2-0.7,0.6-0.9,1
			c-0.2,0.4-0.3,0.9-0.3,1.5c0,0.6,0.1,1.1,0.3,1.5c0.2,0.4,0.5,0.8,0.9,1s0.8,0.3,1.3,0.3c0.5,0,0.9-0.1,1.3-0.3
			c0.4-0.2,0.7-0.6,0.9-1c0.2-0.4,0.3-0.9,0.3-1.5c0-0.6-0.1-1.1-0.3-1.5c-0.2-0.4-0.5-0.8-0.9-1c-0.4-0.2-0.8-0.3-1.3-0.3
			C112.7,53.2,112.2,53.3,111.8,53.5z"/>
		<path class="st1" d="M126.3,52.1v1H123v2.4h2.8v1H123v3.4h-1.3v-7.8H126.3z"/>
		<path class="st1" d="M138.3,53.1v2.4h2.9v1h-2.9v2.4h3.2v1h-4.4v-7.8h4.4v1H138.3z"/>
		<path class="st1" d="M151.1,58.9c-0.2,0.3-0.5,0.6-0.8,0.8c-0.4,0.2-0.8,0.3-1.4,0.3c-0.5,0-1-0.1-1.4-0.3c-0.4-0.2-0.8-0.4-1-0.8
			c-0.3-0.3-0.4-0.7-0.4-1.2h1.3c0,0.3,0.2,0.6,0.4,0.9c0.3,0.2,0.6,0.4,1,0.4c0.4,0,0.7-0.1,0.9-0.3c0.2-0.2,0.3-0.5,0.3-0.8
			c0-0.3-0.1-0.5-0.2-0.7c-0.2-0.2-0.3-0.3-0.6-0.4s-0.5-0.2-0.9-0.4c-0.5-0.2-0.9-0.3-1.2-0.5c-0.3-0.2-0.6-0.4-0.8-0.7
			c-0.2-0.3-0.3-0.7-0.3-1.2c0-0.4,0.1-0.8,0.3-1.1s0.5-0.6,0.9-0.7c0.4-0.2,0.8-0.3,1.3-0.3c0.8,0,1.4,0.2,1.9,0.6
			c0.5,0.4,0.7,0.9,0.8,1.5h-1.4c-0.1-0.3-0.2-0.5-0.4-0.8c-0.2-0.2-0.5-0.3-0.9-0.3c-0.4,0-0.6,0.1-0.8,0.3
			c-0.2,0.2-0.3,0.4-0.3,0.8c0,0.3,0.1,0.5,0.2,0.7c0.1,0.2,0.3,0.3,0.6,0.4c0.2,0.1,0.5,0.2,0.9,0.3c0.5,0.2,0.9,0.3,1.2,0.5
			c0.3,0.2,0.6,0.4,0.8,0.7c0.2,0.3,0.3,0.7,0.3,1.2C151.3,58.2,151.2,58.6,151.1,58.9z"/>
		<path class="st1" d="M160.9,58.9c-0.2,0.3-0.5,0.6-0.8,0.8c-0.4,0.2-0.8,0.3-1.4,0.3c-0.5,0-1-0.1-1.4-0.3c-0.4-0.2-0.8-0.4-1-0.8
			c-0.2-0.3-0.4-0.7-0.4-1.2h1.3c0,0.3,0.2,0.6,0.4,0.9s0.6,0.4,1,0.4c0.4,0,0.7-0.1,0.9-0.3c0.2-0.2,0.3-0.5,0.3-0.8
			c0-0.3-0.1-0.5-0.2-0.7c-0.2-0.2-0.3-0.3-0.6-0.4c-0.2-0.1-0.5-0.2-0.9-0.4c-0.5-0.2-0.9-0.3-1.2-0.5c-0.3-0.2-0.6-0.4-0.8-0.7
			c-0.2-0.3-0.3-0.7-0.3-1.2c0-0.4,0.1-0.8,0.3-1.1c0.2-0.3,0.5-0.6,0.9-0.7c0.4-0.2,0.8-0.3,1.3-0.3c0.8,0,1.4,0.2,1.9,0.6
			c0.5,0.4,0.7,0.9,0.8,1.5h-1.4c-0.1-0.3-0.2-0.5-0.4-0.8s-0.5-0.3-0.9-0.3c-0.4,0-0.6,0.1-0.8,0.3s-0.3,0.4-0.3,0.8
			c0,0.3,0.1,0.5,0.2,0.7c0.1,0.2,0.3,0.3,0.6,0.4c0.2,0.1,0.5,0.2,0.9,0.3c0.5,0.2,0.9,0.3,1.2,0.5c0.3,0.2,0.6,0.4,0.8,0.7
			c0.2,0.3,0.3,0.7,0.3,1.2C161.2,58.2,161.1,58.6,160.9,58.9z"/>
		<path class="st1" d="M167.2,53.1v2.4h2.9v1h-2.9v2.4h3.2v1H166v-7.8h4.4v1H167.2z"/>
		<path class="st1" d="M181.4,59.9h-1.3l-3.8-5.7v5.7h-1.3v-7.8h1.3l3.8,5.8v-5.8h1.3V59.9z"/>
		<path class="st1" d="M192.3,52.8c0.6,0.5,1.1,1.1,1.3,2h-1.3c-0.2-0.5-0.5-0.8-0.9-1.1c-0.4-0.3-0.9-0.4-1.5-0.4
			c-0.5,0-0.9,0.1-1.2,0.3c-0.4,0.2-0.6,0.6-0.9,1s-0.3,0.9-0.3,1.5c0,0.6,0.1,1,0.3,1.5c0.2,0.4,0.5,0.7,0.9,1
			c0.4,0.2,0.8,0.3,1.2,0.3c0.6,0,1.1-0.1,1.5-0.4c0.4-0.3,0.7-0.6,0.9-1.1h1.3c-0.2,0.8-0.6,1.5-1.3,2s-1.4,0.7-2.4,0.7
			c-0.7,0-1.4-0.2-1.9-0.5c-0.6-0.3-1-0.8-1.3-1.4s-0.5-1.3-0.5-2.1c0-0.8,0.2-1.5,0.5-2.1s0.7-1.1,1.3-1.4c0.6-0.3,1.2-0.5,1.9-0.5
			C190.9,52.1,191.7,52.3,192.3,52.8z"/>
		<path class="st1" d="M199.6,53.1v2.4h2.9v1h-2.9v2.4h3.2v1h-4.4v-7.8h4.4v1H199.6z"/>
	</g>
	<path id="Path_899" class="st2" d="M29.5,57c-0.4-0.4-0.7-0.9-0.9-1.4c-0.4-0.9-0.7-1.8-0.9-2.7c-0.2-1-0.2-1.9-0.1-2.9
		c0.1-0.9,0.4-1.7,0.7-2.6c0.3-0.7,0.7-1.3,1.1-1.9c0.5-0.6,1.2-1.3,1.8-1.9s1.2-1.3,1.8-1.8s1.1-1,1.6-1.5s1.1-1.1,1.6-1.7
		s1-1.3,1.4-1.8c0.4-0.5,0.7-1.1,0.9-1.7c0.2-0.5,0.3-1,0.4-1.6c0.1-0.4,0.1-0.5,0.2-0.4c0.3,0.4,0.6,0.8,0.8,1.2
		c0.5,0.8,0.9,1.6,1.3,2.4c0.4,0.8,0.7,1.7,0.9,2.6c0.3,1,0.5,2,0.7,3c0.2,1.1,0.2,2.2,0.2,3.4c0,1.2-0.2,2.5-0.5,3.7
		c-0.3,1.3-0.7,2.5-1.3,3.7c-0.6,1.2-1.3,2.3-2.1,3.3c-0.7,0.9-1.5,1.8-2.3,2.7c-0.8,0.8-1.7,1.6-2.7,2.3c-1.1,0.8-2.3,1.5-3.5,2.1
		c-1.1,0.5-2.2,0.9-3.4,1.2c-1.2,0.3-2.5,0.5-3.7,0.6c-1.3,0.1-2.6,0.1-3.9,0c-1.5-0.2-2.9-0.5-4.3-0.9c-1.5-0.5-3-1.1-4.4-1.8
		c-1.2-0.6-2.4-1.4-3.5-2.2c-0.8-0.6-1.6-1.3-2.2-2.1c-0.7-0.8-1.3-1.6-1.9-2.5c-0.6-1-1.2-2-1.6-3C1.4,51.5,1,50.3,0.7,49
		c-0.3-1.2-0.5-2.5-0.6-3.8c-0.1-1-0.1-2.1,0.1-3.1c0.2-1,0.4-1.9,0.7-2.9c0.2-0.8,0.5-1.6,0.8-2.4c0.5-1.1,1-2.1,1.6-3.1
		c0.5-0.8,1.1-1.6,1.6-2.3c0.4-0.6,0.7-1,0.4-0.5S4.2,32.8,3.6,34c-0.6,1.1-1.1,2.3-1.4,3.5c-0.3,1.2-0.5,2.4-0.6,3.6
		c-0.1,1.1-0.1,2.3,0,3.4c0.1,1.2,0.3,2.4,0.7,3.6c0.3,1,0.6,2.1,1.1,3c0.4,0.9,0.9,1.7,1.5,2.6c0.5,0.7,1,1.4,1.6,2.1
		c0.7,0.7,1.4,1.4,2.2,2.1c0.7,0.7,1.6,1.2,2.4,1.8c1,0.6,2.1,1.1,3.2,1.4c1.3,0.4,2.5,0.8,3.8,1c1.1,0.2,2.3,0.3,3.4,0.3
		c1,0,1.9-0.1,2.8-0.3c1.1-0.2,2.2-0.5,3.3-0.8c1.1-0.4,2.1-0.8,3.1-1.3c0.9-0.5,1.8-1.1,2.7-1.8c0.8-0.6,1.5-1.3,2.1-2
		c0.6-0.7,1.2-1.4,1.7-2.2c0.5-0.8,1-1.6,1.3-2.4c0.4-1,0.6-2,0.8-3c0.1-0.7,0.2-1.3,0.2-2c0-0.4,0-0.4-0.2,0.2s-0.8,1.8-1.4,2.9
		c-0.6,1.1-1.2,2.1-1.9,3c-0.7,0.9-1.4,1.7-2.2,2.4c-0.6,0.5-1.2,1-1.9,1.4c-0.4,0.2-0.8,0.4-1.3,0.6C30.3,57.2,29.9,57.2,29.5,57"
		/>
	<path id="Path_900" class="st3" d="M22.2,0.1c-0.1,0.4-0.1,1.5-0.2,2.7c-0.1,1.2-0.2,2.4-0.4,3.6c-0.2,1.3-0.5,2.7-0.9,4.1
		c-0.4,1.4-0.8,2.7-1.3,4c-0.5,1.2-1.1,2.4-1.8,3.6c-0.7,1.1-1.4,2.3-2,3.3c-0.6,1-1.3,1.9-2,2.9c-0.8,1-1.7,2-2.5,3s-1.7,2-2.5,3
		c-0.8,0.9-1.5,2-2.2,3c-0.6,1.1-1.1,2.3-1.4,3.5c-0.3,1.2-0.5,2.5-0.6,3.8c-0.1,1-0.1,1.9,0,2.9c0.1,1.1,0.3,2.2,0.6,3.2
		c0.3,1,0.6,1.9,1,2.8c0.3,0.7,0.6,1.4,0.9,2c0.3,0.4,0.6,0.9,1,1.3c0.4,0.4,0.8,1,1.5,1.6s1.6,1.5,2.3,2.1c0.7,0.6,1.5,1.2,2.4,1.7
		c1.1,0.6,2.3,1.1,3.5,1.4c1.1,0.3,2.2,0.5,3.3,0.6c0.8,0.1,1.6,0.1,2.4,0c0.9,0,1.7-0.1,2.6-0.2c0.7-0.1,1.3-0.3,1.9-0.5
		c0.3-0.2,0.2-0.4,0-0.8c-0.4-0.7-0.8-1.4-1.1-2.2c-0.5-1.2-0.9-2.4-1.2-3.7c-0.2-1.1-0.3-2.3-0.2-3.4c0.1-0.9,0.3-1.9,0.6-2.8
		c0.2-0.7,0.6-1.5,1-2.1c0.4-0.7,0.9-1.3,1.4-1.8c0.5-0.5,1-1,1.5-1.5c0.5-0.5,1.1-1,1.8-1.6s1.4-1.3,2-2s1.2-1.1,1.7-1.6
		c0.5-0.5,0.9-1,1.2-1.6c0.4-0.6,0.6-1.2,0.8-1.9c0.2-0.8,0.3-1.6,0.3-2.5c0-0.8-0.1-1.6-0.3-2.3c-0.3-1.1-0.6-2.1-1-3.1
		c-0.4-0.9-0.8-1.7-1.3-2.5c-0.4-0.8-0.9-1.7-1.3-2.3s-0.7-1.1-1.1-1.8s-1-1.6-1.4-2.2s-0.7-0.9-1.2-1.8s-1.4-2.3-2-3.4
		s-1.1-1.8-1.6-2.9s-1.3-2.7-1.9-3.8s-0.9-2-1.1-2.5s-0.4-0.8-0.5-1.1S22.3-0.2,22.2,0.1"/>
	<line id="Line_31" class="st4" x1="53.8" y1="43.4" x2="201.8" y2="43.4"/>
</g>
</svg>
